<svg width="192" height="205" viewBox="0 0 192 205" fill="none" xmlns="http://www.w3.org/2000/svg">
<path fill-rule="evenodd" clip-rule="evenodd" d="M100.709 169.649L71.0552 187.12L75.9175 204.62H90.9912L100.709 169.649Z" fill="#C3504D"/>
<path fill-rule="evenodd" clip-rule="evenodd" d="M70.0984 183.67L102.045 164.848L105.451 152.589L67.6506 174.861L70.0984 183.67Z" fill="#C3504D"/>
<path fill-rule="evenodd" clip-rule="evenodd" d="M66.6908 171.412L106.786 147.79L110.192 135.531L64.2415 162.602L66.6908 171.412Z" fill="#C3504D"/>
<path fill-rule="evenodd" clip-rule="evenodd" d="M63.2833 159.153L111.526 130.73L114.935 118.471L60.8365 150.343L63.2833 159.153Z" fill="#C3504D"/>
<path fill-rule="evenodd" clip-rule="evenodd" d="M59.8756 146.894L108.172 118.439H90.7777L57.4285 138.086L59.8756 146.894Z" fill="#C3504D"/>
<path fill-rule="evenodd" clip-rule="evenodd" d="M56.4679 134.63L83.9488 118.438H51.9694L56.4679 134.63Z" fill="#C3504D"/>
<path fill-rule="evenodd" clip-rule="evenodd" d="M51.7149 114.946H115.198C117.114 114.946 118.858 114.145 120.124 112.853C121.39 111.561 122.175 109.782 122.175 107.826V93.9737H54.4621C53.5174 93.9737 52.7507 93.1913 52.7507 92.2273C52.7507 91.2633 53.5174 90.4808 54.4621 90.4808H122.175V88.05C122.175 86.0949 121.39 84.3151 120.124 83.0235C118.858 81.7319 117.114 80.9307 115.198 80.9307H111.197H111.15H51.7127C49.7968 80.9307 48.0526 81.7319 46.7869 83.0235C45.5213 84.3151 44.7361 86.0949 44.7361 88.05V107.826C44.7361 109.781 45.5213 111.561 46.7869 112.853C48.0526 114.144 49.7968 114.945 51.7127 114.945L51.7149 114.946Z" fill="#C3504D"/>
<path fill-rule="evenodd" clip-rule="evenodd" d="M66.1151 77.4423H110.929L113.579 76.6077C115.423 76.0277 117.122 74.6234 118.374 72.829C119.633 71.0221 120.416 68.8479 120.416 66.7407C120.416 65.9916 120.32 65.3156 120.142 64.7272C119.85 63.759 119.333 62.987 118.66 62.4633C118.008 61.9583 117.184 61.6787 116.251 61.6787C116.1 61.6787 115.945 61.685 115.789 61.6996C115.395 61.8811 114.992 62.0355 114.583 62.1649L66.1169 77.4428L66.1151 77.4423Z" fill="#C3504D"/>
<path fill-rule="evenodd" clip-rule="evenodd" d="M58.0069 76.1344L113.581 58.6157C114.002 58.4822 114.415 58.382 114.822 58.3111C116.18 57.5891 117.411 56.4395 118.376 55.0561C119.636 53.2491 120.419 51.0749 120.419 48.9677C120.419 48.2187 120.323 47.5426 120.145 46.9542C119.852 45.9861 119.335 45.2141 118.662 44.6903C118.01 44.1833 117.186 43.9058 116.254 43.9058C115.72 43.9058 115.16 43.9913 114.585 44.1728L111.455 45.1598C111.438 45.1661 111.422 45.1702 111.406 45.1744L62.5901 60.5629L59.0118 61.6917C57.1675 62.2718 55.4684 63.6782 54.217 65.4705C52.9575 67.2774 52.1743 69.4516 52.1743 71.5588C52.1743 72.3078 52.2704 72.9839 52.4483 73.5723C52.7407 74.5404 53.258 75.3124 53.9307 75.8362C54.583 76.3411 55.407 76.6208 56.3394 76.6208C56.4927 76.6208 56.6481 76.6145 56.8056 76.5999C57.2023 76.4184 57.605 76.2619 58.0079 76.1346L58.0069 76.1344Z" fill="#C3504D"/>
<path fill-rule="evenodd" clip-rule="evenodd" d="M61.5872 57.2351L110.403 41.8466L110.442 41.8341C110.446 41.832 110.45 41.832 110.452 41.8299C112.008 41.325 113.443 40.1294 114.506 38.6062C115.59 37.0538 116.263 35.1864 116.263 33.3815C116.263 32.743 116.181 32.1713 116.032 31.6747C115.788 30.8672 115.359 30.2246 114.803 29.7927C114.267 29.3775 113.586 29.1479 112.813 29.1479C112.364 29.1479 111.891 29.221 111.409 29.3733L62.5932 44.7618C61.0188 45.2584 59.5649 46.4623 58.4895 48.0022C57.4058 49.5546 56.733 51.422 56.733 53.2269C56.733 53.8654 56.8148 54.4371 56.9641 54.9337C57.2074 55.7412 57.6368 56.3838 58.193 56.8157C58.7287 57.2309 59.4096 57.4604 60.1825 57.4604C60.6323 57.4604 61.1046 57.3874 61.5872 57.2351L61.5872 57.2351Z" fill="#C3504D"/>
<path fill-rule="evenodd" clip-rule="evenodd" d="M64.8943 40.3153L106.422 27.2242C107.706 26.8194 108.896 25.8304 109.78 24.5659C110.671 23.289 111.225 21.7533 111.225 20.2718C111.225 19.7543 111.16 19.2932 111.041 18.8968C110.849 18.2645 110.516 17.7617 110.084 17.4257C109.673 17.1065 109.148 16.9312 108.547 16.9312C108.187 16.9312 107.811 16.9897 107.426 17.1107C105.625 17.6782 104.22 18.1394 103.102 18.5045C100.184 19.4602 98.9572 19.8629 98.0534 19.5979C96.3256 19.0908 96.4463 18.204 96.6548 16.6788C96.7489 15.9986 96.8982 14.899 96.3338 13.4467C95.8022 12.078 94.5631 10.4004 93.1216 8.44946C91.494 6.24815 89.6272 3.72132 88.0507 0.668945C84.5788 5.94998 79.7431 8.0467 75.7702 9.77256C71.8382 11.4793 69.0041 12.7083 70.8506 17.4596C71.9609 20.3182 74.3839 21.5096 75.7763 22.194C77.4367 23.0098 78.4897 23.5273 77.8292 25.3092C77.3446 26.6133 75.1098 27.3143 69.0123 29.2235L65.8983 30.2021C64.6142 30.6069 63.4241 31.5959 62.5408 32.8604C61.6493 34.1373 61.0952 35.673 61.0952 37.1545C61.0952 37.672 61.1606 38.1331 61.2792 38.5295C61.4714 39.1617 61.8047 39.6646 62.2361 40.0005C62.6471 40.3198 63.1726 40.495 63.7738 40.495C64.1336 40.495 64.5098 40.4366 64.8943 40.3156L64.8943 40.3153Z" fill="#C3504D"/>
<path fill-rule="evenodd" clip-rule="evenodd" d="M26.1447 71.2094C27.7989 65.9137 29.3794 60.6598 30.1769 55.8609C31.0193 50.7865 30.9886 46.2296 29.2138 42.7116C28.3407 40.9819 26.8624 39.7759 25.1776 39.2271C23.4969 38.6784 21.6075 38.7827 19.9122 39.6736C18.3665 40.4853 17.4198 41.4576 16.882 42.6887C16.2931 44.0345 16.1111 45.7747 16.1377 47.9885H16.1438C16.1561 48.9525 15.3975 49.7433 14.4528 49.7558C14.0275 49.76 13.637 49.6077 13.3344 49.349C11.6168 48.0762 10.1508 47.2395 8.76851 46.9557C7.47215 46.6886 6.14516 46.9098 4.59938 47.7235C2.9043 48.6145 1.72247 50.1231 1.18473 51.8423C0.646998 53.5575 0.74921 55.4854 1.6223 57.2154C3.39914 60.7354 7.01431 63.4041 11.5474 65.6471C15.8433 67.7733 20.9552 69.5114 26.1426 71.2119L26.1447 71.2094Z" fill="#C3504D"/>
<path fill-rule="evenodd" clip-rule="evenodd" d="M153.761 26.1636C154.799 32.4169 156.877 39.261 159.032 46.1463C172.811 41.6352 186.251 36.9653 190.799 28.0999L190.809 28.0769L190.811 28.0707L190.827 28.0394L190.829 28.0352L190.84 28.0164L190.844 28.0185C192.009 25.7108 192.146 23.1381 191.429 20.8469C190.719 18.5851 189.177 16.5966 186.965 15.4012L186.957 15.397L186.936 15.3887L186.918 15.3803L186.897 15.3699L186.887 15.3657L186.869 15.3553L186.871 15.3511C184.81 14.2682 183.033 13.974 181.283 14.335C179.446 14.7127 177.524 15.8081 175.285 17.4711C174.983 17.7298 174.592 17.8821 174.167 17.8779C173.222 17.8654 172.466 17.0746 172.476 16.1106H172.482C172.517 13.2375 172.276 10.9694 171.499 9.19172C170.783 7.55795 169.548 6.26845 167.55 5.19597C167.481 5.16467 167.411 5.1292 167.344 5.08747C165.109 3.94614 162.629 3.82093 160.417 4.5429C158.202 5.26486 156.256 6.83811 155.084 9.08947C155.055 9.16041 155.02 9.22718 154.979 9.29395C152.724 13.8468 152.685 19.6849 153.763 26.1658L153.761 26.1636Z" fill="#C3504D"/>
</svg>
