<svg width="62" height="65" viewBox="0 0 62 65" fill="none" xmlns="http://www.w3.org/2000/svg">
<path fill-rule="evenodd" clip-rule="evenodd" d="M32.4113 53.7485L22.786 59.3055L24.3643 64.8719H29.2569L32.4113 53.7485Z" fill="white"/>
<path fill-rule="evenodd" clip-rule="evenodd" d="M22.4753 58.2084L32.8446 52.2214L33.9503 48.3223L21.6808 55.4063L22.4753 58.2084Z" fill="white"/>
<path fill-rule="evenodd" clip-rule="evenodd" d="M21.3692 54.3092L34.3834 46.7956L35.4891 42.8965L20.5742 51.5071L21.3692 54.3092Z" fill="white"/>
<path fill-rule="evenodd" clip-rule="evenodd" d="M20.2632 50.41L35.922 41.3693L37.0284 37.4702L19.469 47.608L20.2632 50.41Z" fill="white"/>
<path fill-rule="evenodd" clip-rule="evenodd" d="M19.1571 46.5107L34.8333 37.46H29.1874L18.3628 43.7091L19.1571 46.5107Z" fill="white"/>
<path fill-rule="evenodd" clip-rule="evenodd" d="M18.0511 42.6096L26.971 37.4595H16.5909L18.0511 42.6096Z" fill="white"/>
<path fill-rule="evenodd" clip-rule="evenodd" d="M16.5084 36.3487H37.1142C37.736 36.3487 38.3021 36.0939 38.713 35.683C39.1238 35.2722 39.3786 34.7061 39.3786 34.0842V29.678H17.4001C17.0935 29.678 16.8446 29.4291 16.8446 29.1225C16.8446 28.8159 17.0935 28.567 17.4001 28.567H39.3786V27.7938C39.3786 27.1719 39.1238 26.6058 38.713 26.195C38.3021 25.7842 37.736 25.5293 37.1142 25.5293H35.8153H35.8001H16.5077C15.8858 25.5293 15.3197 25.7842 14.9088 26.195C14.498 26.6058 14.2432 27.1719 14.2432 27.7938V34.0841C14.2432 34.706 14.498 35.2721 14.9088 35.6829C15.3197 36.0937 15.8858 36.3486 16.5077 36.3486L16.5084 36.3487Z" fill="white"/>
<path fill-rule="evenodd" clip-rule="evenodd" d="M21.1824 24.4198H35.7282L36.5884 24.1543C37.187 23.9698 37.7385 23.5232 38.1447 22.9524C38.5535 22.3777 38.8077 21.6861 38.8077 21.0159C38.8077 20.7776 38.7765 20.5626 38.7188 20.3754C38.6239 20.0675 38.456 19.8219 38.2376 19.6553C38.0259 19.4947 37.7584 19.4058 37.4558 19.4058C37.4067 19.4058 37.3562 19.4078 37.3058 19.4124C37.1777 19.4701 37.047 19.5193 36.9142 19.5604L21.183 24.4199L21.1824 24.4198Z" fill="white"/>
<path fill-rule="evenodd" clip-rule="evenodd" d="M18.5506 24.0036L36.5892 18.4313C36.7259 18.3889 36.86 18.357 36.992 18.3344C37.4327 18.1048 37.8322 17.7391 38.1455 17.2991C38.5543 16.7243 38.8085 16.0328 38.8085 15.3625C38.8085 15.1243 38.7773 14.9092 38.7196 14.7221C38.6247 14.4141 38.4568 14.1686 38.2384 14.002C38.0267 13.8407 37.7592 13.7524 37.4566 13.7524C37.2834 13.7524 37.1015 13.7797 36.915 13.8374L35.8989 14.1513C35.8936 14.1533 35.8883 14.1546 35.883 14.156L20.0383 19.0507L18.8768 19.4097C18.2782 19.5942 17.7267 20.0416 17.3205 20.6117C16.9117 21.1864 16.6575 21.878 16.6575 22.5482C16.6575 22.7865 16.6887 23.0015 16.7464 23.1887C16.8413 23.4966 17.0092 23.7422 17.2276 23.9088C17.4393 24.0694 17.7067 24.1583 18.0094 24.1583C18.0592 24.1583 18.1096 24.1563 18.1607 24.1517C18.2895 24.0939 18.4202 24.0442 18.551 24.0037L18.5506 24.0036Z" fill="white"/>
<path fill-rule="evenodd" clip-rule="evenodd" d="M19.7128 17.9925L35.5575 13.0977L35.5702 13.0938C35.5715 13.0931 35.5728 13.0931 35.5735 13.0924C36.0785 12.9318 36.5444 12.5515 36.8896 12.067C37.2413 11.5733 37.4597 10.9793 37.4597 10.4052C37.4597 10.2021 37.4331 10.0203 37.3847 9.8623C37.3057 9.60546 37.1663 9.40105 36.9858 9.26367C36.8119 9.13159 36.5909 9.05859 36.34 9.05859C36.194 9.05859 36.0407 9.08182 35.8841 9.13027L20.0393 14.025C19.5283 14.1829 19.0564 14.5659 18.7073 15.0557C18.3556 15.5495 18.1372 16.1434 18.1372 16.7175C18.1372 16.9206 18.1638 17.1025 18.2122 17.2604C18.2912 17.5173 18.4306 17.7217 18.6111 17.8591C18.785 17.9911 19.006 18.0641 19.2568 18.0641C19.4029 18.0641 19.5562 18.0409 19.7128 17.9924L19.7128 17.9925Z" fill="white"/>
<path fill-rule="evenodd" clip-rule="evenodd" d="M20.7862 12.6106L34.2656 8.4466C34.6824 8.31785 35.0687 8.00326 35.3554 7.60106C35.6447 7.1949 35.8246 6.70643 35.8246 6.2352C35.8246 6.07061 35.8034 5.92394 35.7649 5.79784C35.7025 5.59674 35.5943 5.4368 35.4543 5.32994C35.3209 5.2284 35.1503 5.17265 34.9552 5.17265C34.8384 5.17265 34.7163 5.19124 34.5915 5.22973C34.0068 5.41025 33.5508 5.55693 33.1878 5.67307C32.2407 5.97705 31.8425 6.10513 31.5492 6.02085C30.9884 5.85957 31.0275 5.5775 31.0952 5.09236C31.1257 4.87601 31.1742 4.52625 30.991 4.06432C30.8185 3.62894 30.4163 3.09535 29.9484 2.4748C29.4201 1.77461 28.8141 0.97089 28.3024 0C27.1755 1.67977 25.6059 2.34669 24.3164 2.89565C23.0401 3.43853 22.1202 3.82945 22.7196 5.34071C23.0799 6.24996 23.8664 6.62891 24.3184 6.84661C24.8573 7.1061 25.1991 7.2707 24.9847 7.83748C24.8274 8.25228 24.102 8.47527 22.1229 9.08254L21.1121 9.3938C20.6953 9.52255 20.309 9.83714 20.0223 10.2393C19.733 10.6455 19.5531 11.134 19.5531 11.6052C19.5531 11.7698 19.5743 11.9165 19.6128 12.0426C19.6752 12.2437 19.7834 12.4036 19.9234 12.5105C20.0568 12.612 20.2274 12.6677 20.4225 12.6677C20.5393 12.6677 20.6614 12.6492 20.7862 12.6107L20.7862 12.6106Z" fill="white"/>
<path fill-rule="evenodd" clip-rule="evenodd" d="M8.20865 22.4371C8.74558 20.7526 9.2586 19.0815 9.51743 17.5551C9.79087 15.941 9.78091 14.4916 9.20484 13.3726C8.92144 12.8224 8.44161 12.4388 7.89474 12.2643C7.3492 12.0897 6.73596 12.1229 6.18569 12.4063C5.68395 12.6645 5.37667 12.9737 5.20211 13.3653C5.01097 13.7934 4.9519 14.3469 4.96053 15.0511H4.96252C4.9665 15.3577 4.72027 15.6092 4.41365 15.6132C4.2756 15.6145 4.14884 15.5661 4.05062 15.4838C3.49313 15.0789 3.01727 14.8128 2.56861 14.7225C2.14783 14.6376 1.71711 14.7079 1.21537 14.9668C0.665178 15.2502 0.281574 15.73 0.107033 16.2769C-0.0675078 16.8224 -0.0343314 17.4356 0.249061 17.9859C0.825794 19.1055 1.99922 19.9544 3.47058 20.6678C4.86497 21.3441 6.52423 21.897 8.20797 22.4379L8.20865 22.4371Z" fill="white"/>
<path fill-rule="evenodd" clip-rule="evenodd" d="M49.6309 8.10924C49.968 10.0983 50.6423 12.2752 51.3418 14.4653C55.8143 13.0304 60.1767 11.545 61.6528 8.72513L61.6561 8.71783L61.6568 8.71584L61.6621 8.70589L61.6628 8.70456L61.6661 8.69859L61.6674 8.69925C62.0457 7.96522 62.0902 7.1469 61.8572 6.41814C61.6269 5.6987 61.1265 5.06623 60.4084 4.68598L60.4058 4.68466L60.3991 4.682L60.3931 4.67935L60.3865 4.67603L60.3832 4.6747L60.3772 4.67138L60.3779 4.67006C59.7089 4.32561 59.1322 4.23203 58.564 4.34685C57.968 4.46698 57.3442 4.81541 56.6174 5.34437C56.5192 5.42666 56.3925 5.47511 56.2544 5.47378C55.9478 5.4698 55.7022 5.21827 55.7055 4.91164H55.7075C55.7188 3.99776 55.6405 3.27633 55.3883 2.7109C55.156 2.19124 54.7551 1.78107 54.1067 1.43994C54.0842 1.42999 54.0616 1.41871 54.0397 1.40543C53.3143 1.0424 52.5092 1.00258 51.7912 1.23222C51.0724 1.46186 50.4406 1.96227 50.0602 2.67838C50.0509 2.70094 50.0397 2.72218 50.0264 2.74342C49.2943 4.19156 49.2817 6.04853 49.6315 8.10995L49.6309 8.10924Z" fill="white"/>
</svg>
