<?xml version="1.0" encoding="UTF-8"?>
<svg id="Layer_1" xmlns="http://www.w3.org/2000/svg" version="1.1" viewBox="0 0 150 150">
  <!-- Generator: Adobe Illustrator 29.0.1, SVG Export Plug-In . SVG Version: 2.1.0 Build 192)  -->
  <defs>
    <style>
      .st0 {
        fill: #231f20;
      }

      .st1 {
        fill: #fff;
        stroke: #231f20;
        stroke-miterlimit: 10;
        stroke-width: 9px;
      }
    </style>
  </defs>
  <circle class="st1" cx="75" cy="75" r="48.81"/>
  <path class="st0" d="M54.53,93.28l6.72-8.05c4.65,3.84,9.53,6.28,15.44,6.28,4.66,0,7.46-1.85,7.46-4.88v-.15c0-2.88-1.77-4.36-10.42-6.58-10.42-2.66-17.14-5.54-17.14-15.81v-.15c0-9.38,7.54-15.59,18.1-15.59,7.54,0,13.96,2.36,19.21,6.58l-5.91,8.57c-4.58-3.18-9.09-5.1-13.45-5.1s-6.65,2-6.65,4.51v.15c0,3.4,2.22,4.51,11.16,6.8,10.49,2.73,16.4,6.5,16.4,15.52v.15c0,10.27-7.83,16.03-18.99,16.03-7.83,0-15.74-2.73-21.94-8.28Z"/>
</svg>